<svg xmlns="http://www.w3.org/2000/svg" width="780" height="420" viewBox="0 0 780 420" font-family='ui-monospace, SFMono-Regular, "SF Mono", Menlo, Consolas, "Liberation Mono", monospace' font-size="14">
<rect width="780" height="420" rx="10" fill="#16181d"/>
<path d="M0 10a10 10 0 0 1 10-10h760a10 10 0 0 1 10 10v26H0z" fill="#22252c"/>
<circle cx="22" cy="18" r="6" fill="#ff5f57"/>
<circle cx="42" cy="18" r="6" fill="#febc2e"/>
<circle cx="62" cy="18" r="6" fill="#28c840"/>
<text x="356" y="23" fill="#6e7681" font-size="12">aura 0.1.2</text>
<text x="22" y="72" fill="#7ee787" xml:space="preserve">aura :&gt; stash squad = [&quot;ana&quot;, &quot;bo&quot;, &quot;cy&quot;]</text>
<text x="22" y="94" fill="#79c0ff" xml:space="preserve">[&quot;ana&quot;, &quot;bo&quot;, &quot;cy&quot;]</text>
<text x="22" y="116" fill="#7ee787" xml:space="preserve">aura :&gt; &quot;we have {howmany(squad)} in the {squad[0]} era&quot;</text>
<text x="22" y="138" fill="#79c0ff" xml:space="preserve">&quot;we have 3 in the ana era&quot;</text>
<text x="22" y="160" fill="#7ee787" xml:space="preserve">aura :&gt; eachof(squad, howmany)</text>
<text x="22" y="182" fill="#79c0ff" xml:space="preserve">[3, 2, 2]</text>
<text x="22" y="204" fill="#7ee787" xml:space="preserve">aura :&gt; chore add(a, b) ong yeet a + b bet</text>
<text x="22" y="226" fill="#79c0ff" xml:space="preserve">&lt;chore add&gt;</text>
<text x="22" y="248" fill="#7ee787" xml:space="preserve">aura :&gt; smoosh(eachof(squad, howmany), add)</text>
<text x="22" y="270" fill="#79c0ff" xml:space="preserve">7</text>
<text x="22" y="292" fill="#7ee787" xml:space="preserve">aura :&gt; 1 + ghosted</text>
<text x="22" y="314" fill="#ff7b72" xml:space="preserve">Runtime Error: Illegal operation between math and ghosted</text>
<text x="22" y="336" fill="#ff7b72" xml:space="preserve">File &lt;stdin&gt;, line 1, col 1</text>
<text x="22" y="358" fill="#ff7b72" xml:space="preserve">  1 + ghosted</text>
<text x="22" y="380" fill="#ff7b72" xml:space="preserve">  ^^^^^^^^^^^</text>
</svg>